<svg xmlns="http://www.w3.org/2000/svg">
  <symbol id="icon-editor-contrast" viewBox="-35.422 -7.96 31.92 31.92">
    <path fill="#231F20" d="M-19.462-3.96c6.595 0 11.96 5.365 11.96 11.96s-5.365 11.96-11.96 11.96-11.96-5.365-11.96-11.96 5.365-11.96 11.96-11.96m0-4c-8.814 0-15.96 7.145-15.96 15.96 0 8.813 7.146 15.96 15.96 15.96S-3.502 16.813-3.502 8c0-8.815-7.146-15.96-15.96-15.96z"/>
    <path d="M-19.462 16.33c4.706 0 8.52-3.812 8.52-8.52 0-4.704-3.813-8.518-8.52-8.518"/>
  </symbol>
  <symbol id="icon-editor-crop" viewBox="0 0 48 48">
    <path fill="none" d="M0 0h48v48H0V0z"/>
    <path d="M34 30h4V14c0-2.21-1.79-4-4-4H18v4h16v16zm-20 4V2h-4v8H2v4h8v20c0 2.21 1.79 4 4 4h20v8h4v-8h8v-4H14z"/>
  </symbol>
  <symbol id="icon-editor-fill" viewBox="0 0 48 48">
    <path fill="none" d="M0 0h48v48H0V0z"/>
    <path d="M33.12 17.88L15.24 0l-2.83 2.83 4.76 4.76L6.88 17.88c-1.17 1.17-1.17 3.07 0 4.24l11 11c.58.59 1.35.88 2.12.88s1.54-.29 2.12-.88l11-11c1.17-1.17 1.17-3.07 0-4.24zM10.41 20L20 10.42 29.59 20H10.41zM38 23s-4 4.33-4 7c0 2.21 1.79 4 4 4s4-1.79 4-4c0-2.67-4-7-4-7zM0 40h48v3H0z"/>
  </symbol>
  <symbol id="icon-arrow-left" viewBox="0 0 21.706 41.719">
    <path d="M2.045 20.86L21.458 1.445c.33-.33.33-.867 0-1.198-.33-.33-.867-.33-1.197 0L.25 20.26c-.33.33-.33.868 0 1.198L20.26 41.47c.165.166.383.25.6.25s.434-.084.6-.25c.33-.33.33-.866 0-1.197L2.044 20.86z"/>
  </symbol>
  <symbol id="icon-arrow-right" viewBox="0 0 21.706 41.719">
    <path d="M19.66 20.86L.25 1.445c-.33-.33-.33-.867 0-1.198.33-.33.867-.33 1.197 0L21.458 20.26c.33.33.33.867 0 1.197L1.445 41.47c-.164.166-.382.25-.6.25s-.433-.084-.598-.25c-.33-.33-.33-.866 0-1.197L19.66 20.86z"/>
  </symbol>
  <symbol id="icon-twitter" viewBox="0 0 17.5 14.663">
    <path fill-rule="evenodd" clip-rule="evenodd" d="M11.283.153c1.736-.485 3.074.263 3.685 1.15.694-.225 1.372-.47 2.072-.69-.004.84-.538 1.478-.883 1.727.704.166 1.343-.48 1.343-.48-.175.976-1.035 1.746-1.61 1.977-.24 6.592-3.273 10.956-10.383 10.823h-.46c-.422 0-4.29-.45-5.047-1.843 2.34.192 4.01-.412 4.835-1.15-.99-.293-2.76-.464-3.07-2.88.362.104.583.222 1.228.116C1.757 8.067.385 7.366.46 5.218c.295.32 1.1.523 1.382.46C1.117 5.445-.188 2.4.922.844c1.872 1.81 3.847 3.52 7.368 3.685.216-2.24 1.17-3.74 2.993-4.375z"/>
  </symbol>
  <symbol id="icon-facebook" viewBox="0 0 8.673 18.944">
    <path d="M6.275 3.357h2.398V0H5.795C2.655.18 1.54 2.387 1.948 6.115H0v3.517h1.958v9.312h3.837V9.632h2.857V6.115H5.786c-.02-1.045-.036-2.406.49-2.758z"/>
  </symbol>
  <symbol id="icon-youtube" viewBox="0 0 14.64 13.96">
    <path d="M1.775 13.78C.8 14.257 0 13.758 0 12.67V1.29C0 .202.8-.295 1.775.18l12.133 5.933c.975.478.975 1.258 0 1.736L1.775 13.78z"/>
  </symbol>
  <symbol id="logo-htmlacademy" viewBox="0 0 26.943 34.09">
    <path d="M13.62.017L13.472 0 0 1.412v24.66l13.472 8.018 13.43-7.99.042-.026V1.412L13.62.017zm11.4 12.11L13.494 5.334V5.23l-.088.05-.088-.056v.11L1.924 12.117v-8.97l11.547-1.213L25.02 3.147v8.98zm-11.615-5.34L24.923 13.5l-4.48 2.64-7.092-4.22-.012 1.414 5.904 3.513-.86.507-5.03-2.992-.014 1.415 3.827 2.275-.782.523-3.032-1.787-.012 1.413 1.852 1.092-1.8 1.08-11.356-6.75 11.37-6.835zm-11.48 8.34l11.41 6.79.016 1.045-7.94-4.728-.015 1.416 7.98 4.796.016 1.076-7.97-4.74-.014 1.414 8.02 4.82.046.027 8.143-4.872v-1.267l-.01-.148v-3.76l3.414-2.037v10.02L13.47 31.85 1.925 24.98v-9.853z"/>
  </symbol>
  <symbol id="htmlacademy" viewBox="0 0 60 60">
    <path fill="#2E368F" d="M30.2 5h-.2l-19.7 2.1v36.2l19.7 11.7 19.7-11.7v-36.2l-19.5-2.1zm17 36.8l-17.2 10.2-17.2-10.2v-14.8l17.1 10.2v1.8l-11.7-7v1.8l11.8 7.1v1.9l-11.8-7v1.8l11.8 7 11.9-7.1v-7.6l5.3-3.2v15.1zm-.1-17l-4.7 2.8-2.2 1.3-10.3-6.1v1.8l8.8 5.3h-.1l-.2.1-1.3.7-7.3-4.3v1.8l5.8 3.4-1.4.9-4.3-2.6v1.8l2.9 1.7-2.9 1.7-17-10.1 17-10.2 17.2 10zm.1-1.8l-17.3-10.2-17.1 10.2v-13.6l17.2-1.8 17.2 1.8v13.6z"/>
  </symbol>
  <symbol id="logo-pink-blue-desktop" viewBox="0 0 146.3 40.375">
    <g fill="#283645">
      <path d="M71.874 18.66c0-.707.58-1.287 1.256-1.287h7.18c5.087 0 8.436 2.704 8.436 7.146v.062c0 4.86-4.057 7.373-8.854 7.373h-5.475v6.825c0 .708-.58 1.287-1.29 1.287-.675 0-1.255-.58-1.255-1.287l.002-20.12zm8.114 10.98c3.734 0 6.182-1.995 6.182-4.958v-.062c0-3.22-2.414-4.894-6.053-4.894h-5.7v9.917h5.57v-.002zM93.603 18.5c0-.708.58-1.288 1.255-1.288.71 0 1.288.58 1.288 1.288v20.283c0 .708-.58 1.287-1.288 1.287-.676 0-1.255-.58-1.255-1.287V18.5zM102.744 18.532c0-.676.58-1.256 1.256-1.256h.354c.58 0 .935.29 1.288.74l13.684 17.45V18.468c0-.676.547-1.256 1.256-1.256.676 0 1.225.58 1.225 1.256v20.35c0 .676-.48 1.19-1.158 1.19h-.13c-.548 0-.936-.322-1.318-.773l-13.976-17.867v17.45c0 .676-.547 1.256-1.257 1.256-.677 0-1.224-.58-1.224-1.257V18.532h-.002zM128.173 18.5c0-.708.58-1.288 1.257-1.288.708 0 1.286.58 1.286 1.288v12.33l12.848-13.167c.29-.257.58-.45.998-.45.676 0 1.225.61 1.225 1.255 0 .354-.162.644-.42.9l-7.984 7.92 8.564 10.562c.225.29.354.547.354.936 0 .676-.576 1.288-1.284 1.288-.482 0-.807-.26-1.03-.58l-8.4-10.464-4.864 4.86v4.896c0 .708-.578 1.288-1.286 1.288-.677 0-1.257-.58-1.257-1.288V18.5h-.007z"/>
    </g>
    <path fill="#D22856" d="M98.498 9.875c-2.002 0-3.623-1.623-3.623-3.624 0 2.002-1.623 3.625-3.625 3.625 2.002 0 3.625 1.623 3.625 3.624 0-2.002 1.62-3.625 3.623-3.625z"/>
    <g fill="#D22856">
      <path d="M43.094 19.313c.246 0 .49.014.73.033-.437-.728-1.227-1.22-2.136-1.22-.877 0-1.614-.57-1.884-1.355-.727.21-1.425.483-2.09.817.063.017.123.038.19.038 1.103 0 2 .896 2 2 0 .096-.016.188-.03.28 1-.38 2.085-.592 3.22-.592z"/>
      <path d="M60.462 28.016L55.287 6.65c-.36-2.347-2.593-6.65-8.6-6.65-.828 0-1.5.67-1.5 1.5s.672 1.5 1.5 1.5c4.857 0 5.576 3.73 5.64 4.143l4.767 19.7H55.02c-.444-3.556-2.452-6.627-5.304-8.52-.897.378-1.53 1.268-1.53 2.302 0 .088-.014.17-.025.256 1.992 1.36 3.416 3.49 3.83 5.966.082.488.135.987.135 1.5 0 .512-.053 1.012-.135 1.5-.716 4.27-4.42 7.53-8.896 7.53-4.475 0-8.18-3.26-8.896-7.53-.082-.488-.135-.988-.135-1.5 0-.513.053-1.012.135-1.5.147-.88.427-1.712.808-2.484-1.034-.077-1.852-.932-1.852-1.984 0-.19-.077-.357-.192-.488-.938 1.47-1.57 3.15-1.795 4.957h-1.82c-.74-5.927-5.802-10.53-11.927-10.53s-11.185 4.6-11.927 10.527H3.42l4.767-19.7C8.25 6.728 8.97 3 13.827 3c.828 0 1.5-.67 1.5-1.5s-.672-1.5-1.5-1.5c-6.007 0-8.24 4.303-8.6 6.65L.052 28.017c-.266 1.11.53 1.826 1.426 1.826.012 0 .023.004.036.004h3.982c.08.63.215 1.237.387 1.83.06-.105.102-.223.102-.353 0-1.104.896-2 2-2 .166 0 .324.024.478.062-.043-.343-.074-.688-.074-1.042 0-.512.052-1.01.134-1.5.715-4.27 4.42-7.53 8.896-7.53s8.18 3.26 8.896 7.53c.082.49.135.988.135 1.5s-.052 1.012-.134 1.5c-.715 4.272-4.42 7.53-8.896 7.53-2.022 0-3.883-.67-5.386-1.793-.35.302-.8.49-1.3.49-.412 0-.748.337-.748.75 0 .288-.065.562-.176.81 2.075 1.71 4.722 2.744 7.614 2.744 6.125 0 11.185-4.604 11.927-10.53h1.815c.742 5.927 5.802 10.53 11.927 10.53s11.186-4.604 11.927-10.53H59c.012 0 .023-.004.036-.004.895.002 1.692-.715 1.426-1.824z"/>
    </g>
    <path fill="#283645" d="M50.686 16.125c-2.485 0-4.5-2.014-4.5-4.5 0 2.486-2.013 4.5-4.498 4.5 2.485 0 4.5 2.014 4.5 4.5 0-2.486 2.012-4.5 4.498-4.5zM37.904 19.626c-1.52 0-2.75-1.23-2.75-2.75 0 1.52-1.23 2.75-2.748 2.75 1.52 0 2.75 1.23 2.75 2.75 0-1.52 1.23-2.75 2.748-2.75zM10.734 34.072c-1.52 0-2.75-1.23-2.75-2.75 0 1.52-1.23 2.75-2.748 2.75 1.52 0 2.75 1.23 2.75 2.748 0-1.517 1.23-2.748 2.748-2.748z"/>
  </symbol>
  <symbol id="logo-pink-blue-mobile" viewBox="0 0 146.3 40.375">
    <g fill="#283645">
      <path d="M71.874 18.66c0-.707.58-1.287 1.256-1.287h7.18c5.087 0 8.436 2.704 8.436 7.146v.062c0 4.86-4.057 7.373-8.854 7.373h-5.475v6.825c0 .708-.58 1.287-1.29 1.287-.675 0-1.255-.58-1.255-1.287l.002-20.12zm8.114 10.98c3.734 0 6.182-1.995 6.182-4.958v-.062c0-3.22-2.414-4.894-6.053-4.894h-5.7v9.917h5.57v-.002zM93.603 18.5c0-.708.58-1.288 1.255-1.288.71 0 1.288.58 1.288 1.288v20.283c0 .708-.58 1.287-1.288 1.287-.676 0-1.255-.58-1.255-1.287V18.5zM102.744 18.532c0-.676.58-1.256 1.256-1.256h.354c.58 0 .935.29 1.288.74l13.684 17.45V18.468c0-.676.547-1.256 1.256-1.256.676 0 1.225.58 1.225 1.256v20.35c0 .676-.48 1.19-1.158 1.19h-.13c-.548 0-.936-.322-1.318-.773l-13.976-17.867v17.45c0 .676-.547 1.256-1.257 1.256-.677 0-1.224-.58-1.224-1.257V18.532h-.002zM128.173 18.5c0-.708.58-1.288 1.257-1.288.708 0 1.286.58 1.286 1.288v12.33l12.848-13.16c.29-.256.58-.45.998-.45.676 0 1.225.612 1.225 1.256 0 .354-.162.644-.42.9l-7.984 7.92 8.564 10.562c.225.29.354.547.354.936 0 .676-.576 1.288-1.284 1.288-.482 0-.807-.26-1.03-.58l-8.4-10.464-4.864 4.86v4.896c0 .708-.578 1.288-1.286 1.288-.677 0-1.257-.58-1.257-1.288V18.5h-.007z"/>
    </g>
    <path fill="#D22856" d="M60.462 28.016L55.287 6.65c-.36-2.347-2.593-6.65-8.6-6.65-.828 0-1.5.67-1.5 1.5s.672 1.5 1.5 1.5c4.857 0 5.576 3.73 5.64 4.143l4.767 19.7H55.02c-.74-5.926-5.8-10.53-11.926-10.53s-11.186 4.604-11.927 10.53h-1.82c-.74-5.926-5.802-10.53-11.927-10.53S6.235 20.917 5.493 26.843H3.42l4.767-19.7C8.25 6.73 8.97 3 13.827 3c.828 0 1.5-.67 1.5-1.5s-.672-1.5-1.5-1.5c-6.007 0-8.24 4.303-8.6 6.65L.052 28.017c-.266 1.11.53 1.826 1.426 1.826.012 0 .023.004.036.004h3.982c.74 5.926 5.802 10.53 11.927 10.53s11.185-4.604 11.927-10.53h1.814c.742 5.926 5.802 10.53 11.927 10.53s11.187-4.604 11.928-10.53H59c.012 0 .023-.004.036-.004.895 0 1.692-.717 1.426-1.826zm-34.147 1.828c-.715 4.272-4.42 7.53-8.896 7.53s-8.18-3.258-8.897-7.53c-.082-.488-.135-.988-.135-1.5s.053-1.01.135-1.5c.715-4.27 4.42-7.53 8.896-7.53s8.18 3.26 8.895 7.53c.082.49.135.988.135 1.5s-.053 1.01-.135 1.5zm25.675 0c-.716 4.272-4.42 7.53-8.896 7.53-4.475 0-8.18-3.258-8.896-7.53-.082-.488-.135-.988-.135-1.5s.053-1.01.135-1.5c.716-4.27 4.42-7.53 8.896-7.53 4.475 0 8.18 3.26 8.896 7.53.082.49.135.988.135 1.5s-.053 1.01-.135 1.5z"/>
  </symbol>
  <symbol id="logo-pink-white-desktop" viewBox="0 0 146.3 40.375">
    <g fill="#FFF">
      <path d="M71.874 18.66c0-.707.58-1.287 1.256-1.287h7.18c5.087 0 8.436 2.704 8.436 7.146v.063c0 4.86-4.057 7.373-8.854 7.373h-5.475v6.825c0 .71-.58 1.29-1.288 1.29-.677 0-1.257-.58-1.257-1.29V18.66zm8.114 10.98c3.734 0 6.182-1.995 6.182-4.958v-.063c0-3.22-2.414-4.895-6.053-4.895h-5.7v9.917h5.57zM93.603 18.5c0-.708.58-1.288 1.255-1.288.71 0 1.288.58 1.288 1.288v20.283c0 .708-.58 1.287-1.288 1.287-.676 0-1.255-.58-1.255-1.287V18.5zM102.744 18.532c0-.676.58-1.256 1.256-1.256h.354c.58 0 .935.29 1.288.74l13.684 17.45V18.468c0-.676.547-1.256 1.256-1.256.676 0 1.224.58 1.224 1.256v20.35c0 .675-.48 1.19-1.158 1.19h-.13c-.547 0-.934-.322-1.318-.773l-13.975-17.868v17.45c0 .676-.547 1.256-1.256 1.256-.677 0-1.224-.58-1.224-1.256V18.532h-.002zM128.173 18.5c0-.708.58-1.288 1.257-1.288.708 0 1.286.58 1.286 1.288v12.33l12.848-13.167c.29-.257.58-.45.998-.45.676 0 1.225.61 1.225 1.255 0 .354-.162.644-.42.9l-7.984 7.92 8.564 10.562c.225.29.354.547.354.935 0 .676-.577 1.288-1.285 1.288-.483 0-.806-.258-1.03-.58l-8.402-10.463-4.863 4.86v4.895c0 .708-.578 1.288-1.286 1.288-.677 0-1.257-.58-1.257-1.288V18.5h-.004z"/>
    </g>
    <path fill="#D22856" d="M98.498 9.875c-2.002 0-3.623-1.623-3.623-3.624 0 2.002-1.623 3.625-3.625 3.625 2.002 0 3.625 1.623 3.625 3.624 0-2.002 1.62-3.625 3.623-3.625z"/>
    <g fill="#FFF">
      <path d="M43.094 19.313c.246 0 .49.014.73.033-.437-.728-1.227-1.22-2.136-1.22-.877 0-1.614-.57-1.884-1.355-.727.21-1.425.483-2.09.817.063.017.123.038.19.038 1.103 0 2 .896 2 2 0 .096-.016.188-.03.28 1-.38 2.085-.592 3.22-.592z"/>
      <path d="M60.462 28.016L55.287 6.65c-.36-2.347-2.593-6.65-8.6-6.65-.828 0-1.5.67-1.5 1.5s.672 1.5 1.5 1.5c4.857 0 5.576 3.73 5.64 4.143l4.767 19.7H55.02c-.444-3.556-2.452-6.627-5.304-8.52-.897.378-1.53 1.268-1.53 2.302 0 .088-.014.17-.025.256 1.992 1.36 3.416 3.49 3.83 5.965.082.49.135.988.135 1.5s-.053 1.012-.135 1.5c-.716 4.272-4.42 7.53-8.896 7.53-4.475 0-8.18-3.258-8.896-7.53-.082-.488-.135-.988-.135-1.5s.053-1.01.135-1.5c.147-.878.427-1.71.808-2.483-1.034-.078-1.852-.932-1.852-1.985 0-.19-.077-.357-.192-.49-.938 1.47-1.57 3.15-1.795 4.96h-1.82c-.74-5.928-5.802-10.532-11.927-10.532S6.235 20.917 5.493 26.845H3.42L8.187 7.142C8.25 6.73 8.97 3 13.827 3c.828 0 1.5-.67 1.5-1.5s-.672-1.5-1.5-1.5c-6.007 0-8.24 4.303-8.6 6.65L.052 28.017c-.266 1.11.53 1.826 1.426 1.826.012 0 .023.004.036.004h3.982c.08.628.215 1.237.387 1.83.06-.105.102-.223.102-.353 0-1.104.896-2 2-2 .166 0 .324.025.478.063-.043-.343-.074-.688-.074-1.042 0-.512.052-1.01.134-1.5.715-4.27 4.42-7.53 8.896-7.53s8.18 3.26 8.896 7.53c.082.49.135.988.135 1.5s-.052 1.012-.134 1.5c-.715 4.272-4.42 7.53-8.896 7.53-2.022 0-3.883-.67-5.386-1.793-.35.303-.8.492-1.3.492-.412 0-.748.336-.748.748 0 .29-.065.564-.176.812 2.075 1.708 4.722 2.743 7.614 2.743 6.125 0 11.185-4.604 11.927-10.53h1.815c.742 5.926 5.802 10.53 11.927 10.53s11.186-4.604 11.927-10.53H59c.012 0 .023-.004.036-.004.895.002 1.692-.715 1.426-1.824z"/>
    </g>
    <path fill="#D22856" d="M50.686 16.125c-2.485 0-4.5-2.014-4.5-4.5 0 2.486-2.013 4.5-4.498 4.5 2.485 0 4.5 2.014 4.5 4.5 0-2.486 2.012-4.5 4.498-4.5zM37.904 19.626c-1.52 0-2.75-1.23-2.75-2.75 0 1.52-1.23 2.75-2.748 2.75 1.52 0 2.75 1.23 2.75 2.75 0-1.52 1.23-2.75 2.748-2.75zM10.734 34.072c-1.52 0-2.75-1.23-2.75-2.75 0 1.52-1.23 2.75-2.748 2.75 1.52 0 2.75 1.23 2.75 2.748 0-1.517 1.23-2.748 2.748-2.748z"/>
  </symbol>
  <symbol id="logo-pink-white-mobile" viewBox="0 0 74.426 22.859">
    <g fill="#FFF">
      <path d="M0 1.45C0 .74.58.16 1.256.16h7.18c5.087 0 8.436 2.705 8.436 7.148v.064c0 4.86-4.057 7.373-8.854 7.373H2.544v6.825c0 .708-.58 1.288-1.288 1.288C.58 22.858 0 22.278 0 21.57V1.45zm8.114 10.978c3.734 0 6.182-1.996 6.182-4.958v-.065c0-3.22-2.415-4.894-6.054-4.894H2.544v9.918h5.57zM21.73 1.288C21.73.58 22.307 0 22.982 0c.71 0 1.288.58 1.288 1.288V21.57c0 .71-.578 1.29-1.287 1.29-.676 0-1.255-.58-1.255-1.29V1.29zM30.87 1.32c0-.676.58-1.256 1.256-1.256h.354c.58 0 .934.29 1.288.74l13.684 17.45V1.256C47.452.58 47.998 0 48.707 0c.676 0 1.223.58 1.223 1.256v20.348c0 .676-.482 1.19-1.158 1.19h-.13c-.547 0-.933-.32-1.32-.77L33.35 4.153v17.45c0 .675-.548 1.255-1.256 1.255-.677 0-1.224-.58-1.224-1.257V1.32zM56.3 1.288C56.3.58 56.88 0 57.556 0c.708 0 1.287.58 1.287 1.288v12.33L71.69.452c.29-.257.58-.45.998-.45.676 0 1.224.612 1.224 1.256 0 .354-.16.644-.42.9l-7.983 7.92 8.563 10.562c.225.29.354.547.354.934 0 .676-.58 1.288-1.287 1.288-.483 0-.806-.258-1.03-.58l-8.403-10.463-4.862 4.86v4.895c0 .708-.58 1.288-1.287 1.288-.677 0-1.256-.58-1.256-1.288V1.288z"/>
    </g>
  </symbol>
  <symbol id="logo-pink-white-tablet" viewBox="0 0 146.3 40.375">
    <g fill="#FFF">
      <path d="M71.874 18.66c0-.707.58-1.287 1.256-1.287h7.18c5.087 0 8.436 2.704 8.436 7.146v.063c0 4.86-4.057 7.373-8.854 7.373h-5.475v6.825c0 .71-.58 1.29-1.288 1.29-.677 0-1.257-.58-1.257-1.29V18.66zm8.114 10.98c3.734 0 6.182-1.995 6.182-4.958v-.063c0-3.22-2.414-4.895-6.053-4.895h-5.7v9.917h5.57zM93.603 18.5c0-.708.58-1.288 1.255-1.288.71 0 1.288.58 1.288 1.288v20.283c0 .708-.58 1.287-1.288 1.287-.676 0-1.255-.58-1.255-1.287V18.5zM102.744 18.532c0-.676.58-1.256 1.256-1.256h.354c.58 0 .935.29 1.288.74l13.684 17.45V18.468c0-.676.547-1.256 1.256-1.256.676 0 1.224.58 1.224 1.256v20.35c0 .675-.48 1.19-1.158 1.19h-.13c-.547 0-.934-.322-1.318-.773l-13.975-17.868v17.45c0 .676-.547 1.256-1.256 1.256-.677 0-1.224-.58-1.224-1.256V18.532h-.002zM128.173 18.5c0-.708.58-1.288 1.257-1.288.708 0 1.286.58 1.286 1.288v12.33l12.848-13.167c.29-.257.58-.45.998-.45.676 0 1.225.61 1.225 1.255 0 .354-.162.644-.42.9l-7.984 7.92 8.564 10.562c.225.29.354.547.354.935 0 .676-.577 1.288-1.285 1.288-.483 0-.806-.258-1.03-.58l-8.402-10.463-4.863 4.86v4.895c0 .708-.578 1.288-1.286 1.288-.677 0-1.257-.58-1.257-1.288V18.5h-.004z"/>
    </g>
    <path fill="#FFF" d="M60.462 28.016L55.287 6.65c-.36-2.347-2.593-6.65-8.6-6.65-.828 0-1.5.67-1.5 1.5s.672 1.5 1.5 1.5c4.857 0 5.576 3.73 5.64 4.143l4.767 19.7H55.02c-.74-5.926-5.8-10.53-11.926-10.53s-11.186 4.604-11.927 10.53h-1.82c-.74-5.926-5.802-10.53-11.927-10.53S6.235 20.917 5.493 26.843H3.42l4.767-19.7C8.25 6.73 8.97 3 13.827 3c.828 0 1.5-.67 1.5-1.5s-.672-1.5-1.5-1.5c-6.007 0-8.24 4.303-8.6 6.65L.052 28.017c-.266 1.11.53 1.826 1.426 1.826.012 0 .023.004.036.004h3.982c.74 5.926 5.802 10.53 11.927 10.53s11.185-4.604 11.927-10.53h1.814c.742 5.926 5.802 10.53 11.927 10.53s11.187-4.604 11.928-10.53H59c.012 0 .023-.004.036-.004.895 0 1.692-.717 1.426-1.826zm-34.147 1.828c-.715 4.272-4.42 7.53-8.896 7.53-4.476 0-8.18-3.258-8.897-7.53-.082-.488-.135-.988-.135-1.5s.053-1.01.135-1.5c.715-4.27 4.42-7.53 8.896-7.53 4.474 0 8.18 3.26 8.895 7.53.082.49.135.988.135 1.5s-.053 1.01-.135 1.5zm25.675 0c-.716 4.272-4.42 7.53-8.896 7.53-4.475 0-8.18-3.258-8.896-7.53-.082-.488-.135-.988-.135-1.5s.053-1.01.135-1.5c.716-4.27 4.42-7.53 8.896-7.53 4.475 0 8.18 3.26 8.896 7.53.082.49.135.988.135 1.5s-.053 1.01-.135 1.5z"/>
  </symbol>
</svg>
