<svg xmlns="http://www.w3.org/2000/svg" width="298" height="345.097" viewBox="0 0 298 345.097">
  <path fill="#dedede" d="M264.568 102.055l5.355-5.355c7.717-7.717 9.124-18.938 3.126-24.935-5.998-5.997-17.218-4.59-24.935 3.127l-5.386 5.385c-20.962-16.985-46.62-28.402-74.73-31.98v-9.583h7.658c10.914 0 19.843-8.71 19.843-19.357S186.574 0 175.66 0H122.34C111.43 0 102.5 8.71 102.5 19.357s8.93 19.357 19.842 19.357H130v9.583C56.68 57.63 0 120.244 0 196.097c0 82.29 66.71 149 149 149s149-66.71 149-149c0-35.663-12.535-68.394-33.432-94.042zM149 306.265c-60.844 0-110.167-49.324-110.167-110.168S88.156 85.93 149 85.93c60.843 0 110.167 49.323 110.167 110.167S209.843 306.264 149 306.264z"/>
</svg>
