<svg version="1" xmlns="http://www.w3.org/2000/svg" width="12.545" height="11.99" viewBox="521.939 473.064 12.545 11.99">
  <path fill="#d22856" d="M528.174 485.055c-.212 0-.412-.09-.552-.25-3.798-4.323-4.644-5.297-4.858-5.57h-.004c-.53-.676-.82-1.52-.82-2.374 0-2.094 1.703-3.798 3.798-3.798.934 0 1.804.32 2.484.898.696-.578 1.56-.898 2.463-.898 2.095 0 3.8 1.704 3.8 3.8 0 .908-.32 1.753-.897 2.38l-4.86 5.56c-.14.162-.342.253-.554.253zm-4.245-6.706c.207.254 2.47 2.838 4.242 4.857l4.323-4.944c.34-.37.52-.86.52-1.4 0-1.284-1.045-2.33-2.33-2.33-.73 0-1.42.344-1.9.943-.142.178-.353.267-.585.275-.227-.002-.44-.11-.575-.293-.44-.587-1.13-.925-1.887-.925-1.285 0-2.33 1.046-2.33 2.33 0 .68.275 1.172.507 1.468.004.006.01.012.014.02z"/>
</svg>
