<svg xmlns="http://www.w3.org/2000/svg" width="19.697" height="19.696" viewBox="0 0 19.697 19.696">
  <path fill="#d22856" d="M9.848 0C6.34 0 2.823.628 1.546 1.878.488 2.918.134 4.752.016 5.913c0 0-.016.115-.016.165 0 .454.37.82.82.82.053 0 2.027-.16 3.217-.26.03-.003.058-.007.086-.016.443-.012.8-.372.8-.82l.004-1.616c0-.5.407-.902.907-.902h8.027c.5 0 .908.402.908.902l.003 1.617c0 .447.357.808.803.82.027.01.056.013.085.017 1.19.098 3.164.26 3.217.26.45 0 .822-.367.822-.82 0-.05-.018-.166-.018-.166-.12-1.16-.473-2.995-1.53-4.035C16.872.627 13.355 0 9.847 0zm0 10.67c-.908 0-1.643.733-1.643 1.64 0 .907.734 1.64 1.643 1.64.906 0 1.64-.732 1.64-1.64 0-.906-.734-1.64-1.64-1.64zM8.616 6.975V5.95c0-.566-.46-1.025-1.025-1.025s-1.023.46-1.023 1.026v1.025L1.03 12.888c-.382.376-.62.894-.62 1.47v1.646c0 .907.735 1.643 1.642 1.643h.41v1.023c0 .568.46 1.026 1.027 1.026.564 0 1.023-.458 1.023-1.026v-1.023h10.67v1.023c0 .568.46 1.026 1.024 1.026.567 0 1.026-.458 1.026-1.026v-1.023h.41c.906 0 1.64-.735 1.64-1.643v-1.646c0-.576-.235-1.094-.617-1.47L13.13 6.975V5.95c0-.566-.46-1.025-1.024-1.025-.567 0-1.027.46-1.027 1.026v1.025H8.615zm1.232 2.053c1.814 0 3.282 1.468 3.282 3.282s-1.468 3.282-3.282 3.282c-1.813 0-3.28-1.468-3.28-3.282s1.466-3.282 3.28-3.282z"/>
</svg>
