<svg xmlns="http://www.w3.org/2000/svg" width="146.3" height="40.375" viewBox="0 0 146.3 40.375">
  <g fill="#283645">
    <path d="M71.874 18.66c0-.707.58-1.287 1.256-1.287h7.18c5.087 0 8.436 2.704 8.436 7.146v.062c0 4.86-4.057 7.373-8.854 7.373h-5.475v6.825c0 .708-.58 1.287-1.29 1.287-.675 0-1.255-.58-1.255-1.287l.002-20.12zm8.114 10.98c3.734 0 6.182-1.995 6.182-4.958v-.062c0-3.22-2.414-4.894-6.053-4.894h-5.7v9.917h5.57v-.002zM93.603 18.5c0-.708.58-1.288 1.255-1.288.71 0 1.288.58 1.288 1.288v20.283c0 .708-.58 1.287-1.288 1.287-.676 0-1.255-.58-1.255-1.287V18.5zM102.744 18.532c0-.676.58-1.256 1.256-1.256h.354c.58 0 .935.29 1.288.74l13.684 17.45V18.468c0-.676.547-1.256 1.256-1.256.676 0 1.225.58 1.225 1.256v20.35c0 .676-.48 1.19-1.158 1.19h-.13c-.548 0-.936-.322-1.318-.773l-13.976-17.867v17.45c0 .676-.547 1.256-1.257 1.256-.677 0-1.224-.58-1.224-1.257V18.532h-.002zM128.173 18.5c0-.708.58-1.288 1.257-1.288.708 0 1.286.58 1.286 1.288v12.33l12.848-13.16c.29-.256.58-.45.998-.45.676 0 1.225.612 1.225 1.256 0 .354-.162.644-.42.9l-7.984 7.92 8.564 10.562c.225.29.354.547.354.936 0 .676-.576 1.288-1.284 1.288-.482 0-.807-.26-1.03-.58l-8.4-10.464-4.864 4.86v4.896c0 .708-.578 1.288-1.286 1.288-.677 0-1.257-.58-1.257-1.288V18.5h-.007z"/>
  </g>
  <path fill="#D22856" d="M60.462 28.016L55.287 6.65c-.36-2.347-2.593-6.65-8.6-6.65-.828 0-1.5.67-1.5 1.5s.672 1.5 1.5 1.5c4.857 0 5.576 3.73 5.64 4.143l4.767 19.7H55.02c-.74-5.926-5.8-10.53-11.926-10.53s-11.186 4.604-11.927 10.53h-1.82c-.74-5.926-5.802-10.53-11.927-10.53S6.235 20.917 5.493 26.843H3.42l4.767-19.7C8.25 6.73 8.97 3 13.827 3c.828 0 1.5-.67 1.5-1.5s-.672-1.5-1.5-1.5c-6.007 0-8.24 4.303-8.6 6.65L.052 28.017c-.266 1.11.53 1.826 1.426 1.826.012 0 .023.004.036.004h3.982c.74 5.926 5.802 10.53 11.927 10.53s11.185-4.604 11.927-10.53h1.814c.742 5.926 5.802 10.53 11.927 10.53s11.187-4.604 11.928-10.53H59c.012 0 .023-.004.036-.004.895 0 1.692-.717 1.426-1.826zm-34.147 1.828c-.715 4.272-4.42 7.53-8.896 7.53s-8.18-3.258-8.897-7.53c-.082-.488-.135-.988-.135-1.5s.053-1.01.135-1.5c.715-4.27 4.42-7.53 8.896-7.53s8.18 3.26 8.895 7.53c.082.49.135.988.135 1.5s-.053 1.01-.135 1.5zm25.675 0c-.716 4.272-4.42 7.53-8.896 7.53-4.475 0-8.18-3.258-8.896-7.53-.082-.488-.135-.988-.135-1.5s.053-1.01.135-1.5c.716-4.27 4.42-7.53 8.896-7.53 4.475 0 8.18 3.26 8.896 7.53.082.49.135.988.135 1.5s-.053 1.01-.135 1.5z"/>
</svg>
