<svg xmlns="http://www.w3.org/2000/svg" width="42.084" height="47.041" viewBox="0 0 42.084 47.041">
  <path fill="#A4C639" d="M34.144 14.01h-26.2c-.008.11-.017.22-.017.332v18.755c0 1.926 1.457 3.49 3.316 3.627v7.43c0 1.594 1.29 2.885 2.885 2.885 1.593 0 2.885-1.292 2.885-2.886v-7.42h8.058v7.42c0 1.594 1.292 2.885 2.886 2.885 1.595 0 2.886-1.292 2.886-2.886V36.72c1.858-.137 3.315-1.7 3.315-3.627v-18.75c0-.114-.004-.224-.013-.334zM2.886 15.68c1.593 0 2.886 1.29 2.886 2.884v12.378c0 1.595-1.292 2.886-2.886 2.886S0 32.538 0 30.942V18.564c0-1.594 1.292-2.885 2.886-2.885zM39.198 15.68c1.595 0 2.886 1.29 2.886 2.884v12.378c0 1.595-1.29 2.886-2.886 2.886-1.594 0-2.885-1.29-2.885-2.886V18.564c0-1.594 1.29-2.885 2.885-2.885zM8.03 11.967h26.026c-.04-2.783-1.234-5.322-3.187-7.275L33.314.457c.082-.146.03-.33-.112-.415-.146-.084-.33-.034-.415.11L30.416 4.26c-2.052-1.853-6.25-3.4-9.374-3.4-3.016 0-7.322 1.547-9.374 3.4L9.296.152c-.083-.145-.27-.194-.415-.11-.144.083-.194.27-.11.414l2.445 4.235c-1.95 1.955-3.147 4.494-3.185 7.277zm17.293-5.163c-.002-.805.664-1.46 1.488-1.462.827-.002 1.495.648 1.5 1.454v.008c0 .805-.665 1.46-1.49 1.462-.824.002-1.494-.65-1.497-1.454v-.008zm-11.143 0c0-.805.665-1.46 1.49-1.462.823-.002 1.493.648 1.496 1.454v.008c.002.805-.664 1.46-1.488 1.462-.825.002-1.495-.65-1.498-1.454v-.008z"/>
</svg>
